<svg version="1.2" xmlns="http://www.w3.org/2000/svg" viewBox="0 0 25 18" width="25" height="18">
	<title>Web 1920 – 1</title>
	<defs>
		<clipPath clipPathUnits="userSpaceOnUse" id="cp1">
			<path d="m-1417-81h1920v2776h-1920z"/>
		</clipPath>
	</defs>
	<style>
		.s0 { fill: #95989a } 
	</style>
	<g id="Web 1920 – 1" clip-path="url(#cp1)">
		<g id="-e-">
			<path id="youtube" fill-rule="evenodd" class="s0" d="m24.8 8.7c0 0 0 4-0.5 5.9-0.3 1.1-1.2 1.9-2.2 2.2-2 0.5-9.7 0.5-9.7 0.5 0 0-7.7 0-9.6-0.5-1.1-0.3-1.9-1.2-2.2-2.2-0.5-1.9-0.5-6-0.5-6 0 0 0-4 0.5-5.9 0.3-1.1 1.1-1.9 2.2-2.2 1.9-0.5 9.6-0.5 9.6-0.5 0 0 7.7 0 9.7 0.5 1 0.3 1.9 1.1 2.2 2.2 0.5 1.9 0.5 6 0.5 6zm-8.4-0.1l-6.4-3.7v7.4z"/>
		</g>
	</g>
</svg>